<?xml version="1.0" encoding="UTF-8" standalone="no"?>
<!-- Generator: Adobe Illustrator 16.0.3, SVG Export Plug-In . SVG Version: 6.00 Build 0)  -->

<svg
   xmlns:dc="http://purl.org/dc/elements/1.1/"
   xmlns:cc="http://creativecommons.org/ns#"
   xmlns:rdf="http://www.w3.org/1999/02/22-rdf-syntax-ns#"
   xmlns:svg="http://www.w3.org/2000/svg"
   xmlns="http://www.w3.org/2000/svg"
   xmlns:sodipodi="http://sodipodi.sourceforge.net/DTD/sodipodi-0.dtd"
   xmlns:inkscape="http://www.inkscape.org/namespaces/inkscape"
   version="1.1"
   id="Ebene_1"
   x="0px"
   y="0px"
   width="566.97003"
   height="111.06601"
   viewBox="0 0 566.97002 111.066"
   enable-background="new 0 0 841.89 595.28"
   xml:space="preserve"
   inkscape:version="0.48.4 r9939"
   sodipodi:docname="fau-white.svg"><metadata
   id="metadata3173"><rdf:RDF><cc:Work
       rdf:about=""><dc:format>image/svg+xml</dc:format><dc:type
         rdf:resource="http://purl.org/dc/dcmitype/StillImage" /></cc:Work></rdf:RDF></metadata><defs
   id="defs3171" /><sodipodi:namedview
   pagecolor="#ffffff"
   bordercolor="#666666"
   borderopacity="1"
   objecttolerance="10"
   gridtolerance="10"
   guidetolerance="10"
   inkscape:pageopacity="0"
   inkscape:pageshadow="2"
   inkscape:window-width="1438"
   inkscape:window-height="857"
   id="namedview3169"
   showgrid="false"
   fit-margin-top="0"
   fit-margin-left="0"
   fit-margin-right="0"
   fit-margin-bottom="0"
   inkscape:zoom="0.39645207"
   inkscape:cx="283.945"
   inkscape:cy="55.384001"
   inkscape:window-x="0"
   inkscape:window-y="0"
   inkscape:window-maximized="0"
   inkscape:current-layer="Ebene_1" />
<path
   d="m 247.72,102.865 h -66.99 c 4.117,3.449 8.88,6.036 13.924,7.833 h 39.105 c 5.061,-1.797 9.836,-4.384 13.961,-7.833"
   id="path3081"
   inkscape:connector-curvature="0"
   style="fill:#ffffff" />
<polygon
   points="227.301,341.082 229.705,333.394 201.191,333.394 198.301,341.227 227.335,341.227 227.381,341.082 "
   id="polygon3083"
   style="fill:#ffffff"
   transform="translate(-137,-241.958)" />
<polygon
   points="226.18,344.823 196.971,344.823 194.079,352.656 223.66,352.656 "
   id="polygon3085"
   style="fill:#ffffff"
   transform="translate(-137,-241.958)" />
<rect
   x="0"
   y="102.866"
   width="27.723"
   height="7.8330002"
   id="rect3087"
   style="fill:#ffffff" />
<rect
   x="0"
   y="91.435005"
   width="27.723"
   height="7.8330002"
   id="rect3089"
   style="fill:#ffffff" />
<rect
   x="0"
   y="80.002998"
   width="27.723"
   height="7.8330002"
   id="rect3091"
   style="fill:#ffffff" />
<rect
   x="0"
   y="68.577003"
   width="27.723"
   height="7.8309999"
   id="rect3093"
   style="fill:#ffffff" />
<rect
   x="0"
   y="34.289009"
   width="27.723"
   height="7.8319998"
   id="rect3095"
   style="fill:#ffffff" />
<rect
   x="0"
   y="22.858007"
   width="27.723"
   height="7.8330002"
   id="rect3097"
   style="fill:#ffffff" />
<rect
   x="0"
   y="-9.4696597e-006"
   width="84.727997"
   height="7.8330002"
   id="rect3099"
   style="fill:#ffffff" />
<rect
   x="0"
   y="11.427999"
   width="84.727997"
   height="7.8319998"
   id="rect3101"
   style="fill:#ffffff" />
<polygon
   points="244.954,284.079 247.302,276.247 222.3,276.247 219.408,284.079 "
   id="polygon3103"
   style="fill:#ffffff"
   transform="translate(-137,-241.958)" />
<polygon
   points="234.967,241.958 232.073,249.791 266.584,249.791 263.625,241.958 "
   id="polygon3105"
   style="fill:#ffffff"
   transform="translate(-137,-241.958)" />
<polygon
   points="230.744,253.386 227.853,261.218 270.902,261.218 267.942,253.386 "
   id="polygon3107"
   style="fill:#ffffff"
   transform="translate(-137,-241.958)" />
<polygon
   points="226.523,264.815 223.63,272.648 248.379,272.648 249.452,269.059 249.762,269.059 250.836,272.648 275.221,272.648 272.261,264.815 "
   id="polygon3109"
   style="fill:#ffffff"
   transform="translate(-137,-241.958)" />
<polygon
   points="251.916,276.247 254.259,284.078 279.538,284.078 276.579,276.247 "
   id="polygon3111"
   style="fill:#ffffff"
   transform="translate(-137,-241.958)" />
<polygon
   points="255.336,287.675 257.679,295.507 283.856,295.507 280.898,287.675 "
   id="polygon3113"
   style="fill:#ffffff"
   transform="translate(-137,-241.958)" />
<polygon
   points="258.755,299.104 261.101,306.937 288.174,306.937 285.214,299.104 "
   id="polygon3115"
   style="fill:#ffffff"
   transform="translate(-137,-241.958)" />
<polygon
   points="209.637,310.536 206.742,318.367 292.493,318.367 289.533,310.536 "
   id="polygon3117"
   style="fill:#ffffff"
   transform="translate(-137,-241.958)" />
<polygon
   points="205.414,321.961 202.521,329.794 296.811,329.794 293.851,321.961 "
   id="polygon3119"
   style="fill:#ffffff"
   transform="translate(-137,-241.958)" />
<polygon
   points="269.562,333.394 272.118,341.227 301.132,341.227 298.17,333.394 "
   id="polygon3121"
   style="fill:#ffffff"
   transform="translate(-137,-241.958)" />
<polygon
   points="275.709,352.656 305.446,352.656 302.488,344.823 273.191,344.823 "
   id="polygon3123"
   style="fill:#ffffff"
   transform="translate(-137,-241.958)" />
<rect
   x="167.27499"
   y="-9.4696597e-006"
   width="27.721001"
   height="7.8330002"
   id="rect3125"
   style="fill:#ffffff" />
<rect
   x="167.27499"
   y="11.427999"
   width="27.721001"
   height="7.8319998"
   id="rect3127"
   style="fill:#ffffff" />
<rect
   x="167.27499"
   y="22.858007"
   width="27.721001"
   height="7.8330002"
   id="rect3129"
   style="fill:#ffffff" />
<rect
   x="167.27499"
   y="34.289009"
   width="27.721001"
   height="7.8319998"
   id="rect3131"
   style="fill:#ffffff" />
<rect
   x="167.27499"
   y="45.716988"
   width="27.721001"
   height="7.8319998"
   id="rect3133"
   style="fill:#ffffff" />
<rect
   x="167.27499"
   y="57.147011"
   width="27.721001"
   height="7.8309999"
   id="rect3135"
   style="fill:#ffffff" />
<path
   d="m 167.497,76.408998 h 28.02 c -0.351,-2.027 -0.52,-4.194 -0.52,-6.475 v -1.356 h -27.721 v 3.689 c -0.001,1.439 0.107,2.791 0.221,4.142"
   id="path3137"
   inkscape:connector-curvature="0"
   style="fill:#ffffff" />
<path
   d="m 169.975,87.835998 h 31.618 c -2.462,-1.971 -4.134,-4.647 -5.182,-7.833 h -28.46 c 0.455,2.794 1.112,5.425 2.024,7.833"
   id="path3139"
   inkscape:connector-curvature="0"
   style="fill:#ffffff" />
<path
   d="m 256.918,91.435998 h -85.372 c 1.488,2.927 3.325,5.522 5.412,7.833 h 74.545 c 2.088,-2.311 3.93,-4.907 5.415,-7.833"
   id="path3141"
   inkscape:connector-curvature="0"
   style="fill:#ffffff" />
<path
   d="m 260.518,80.002998 h -28.466 c -1.05,3.186 -2.736,5.861 -5.211,7.833 h 31.648 c 0.914,-2.408 1.569,-5.039 2.029,-7.833"
   id="path3143"
   inkscape:connector-curvature="0"
   style="fill:#ffffff" />
<rect
   x="233.46899"
   y="-9.4696597e-006"
   width="27.723"
   height="7.8330002"
   id="rect3145"
   style="fill:#ffffff" />
<rect
   x="233.46899"
   y="11.427999"
   width="27.723"
   height="7.8319998"
   id="rect3147"
   style="fill:#ffffff" />
<rect
   x="233.46899"
   y="22.858007"
   width="27.723"
   height="7.8330002"
   id="rect3149"
   style="fill:#ffffff" />
<rect
   x="233.46899"
   y="34.289009"
   width="27.723"
   height="7.8319998"
   id="rect3151"
   style="fill:#ffffff" />
<rect
   x="233.46899"
   y="45.716988"
   width="27.723"
   height="7.8319998"
   id="rect3153"
   style="fill:#ffffff" />
<rect
   x="233.46899"
   y="57.147011"
   width="27.723"
   height="7.8309999"
   id="rect3155"
   style="fill:#ffffff" />
<path
   d="m 261.192,72.268998 v -3.691 h -27.723 v 1.358 c 0,2.278 -0.168,4.445 -0.52,6.474 h 28.019 c 0.113,-1.351 0.224,-2.704 0.224,-4.141"
   id="path3157"
   inkscape:connector-curvature="0"
   style="fill:#ffffff" />
<polygon
   points="240.459,299.14 137,299.14 137,306.969 238.115,306.969 "
   id="polygon3159"
   style="fill:#ffffff"
   transform="translate(-137,-241.958)" />
<polygon
   points="243.879,287.644 137,287.644 137,295.475 241.536,295.475 "
   id="polygon3161"
   style="fill:#ffffff"
   transform="translate(-137,-241.958)" />
<path
   d="m 552.201,110.582 c -0.766,0.324 -1.537,0.484 -2.316,0.484 -1.23,0 -2.338,-0.213 -3.318,-0.641 -0.984,-0.428 -1.813,-1.016 -2.486,-1.766 -0.676,-0.75 -1.193,-1.633 -1.553,-2.645 -0.361,-1.014 -0.541,-2.104 -0.541,-3.273 0,-1.201 0.18,-2.314 0.541,-3.342002 0.359,-1.027 0.877,-1.924 1.553,-2.689 0.674,-0.764 1.502,-1.363 2.486,-1.799 0.98,-0.436 2.088,-0.652 3.318,-0.652 0.824,0 1.623,0.123 2.396,0.371 0.771,0.246 1.469,0.611 2.092,1.092 0.623,0.479 1.137,1.072 1.541,1.775 0.406,0.707 0.652,1.518 0.742,2.432 h -3.375 c -0.209,-0.9 -0.615,-1.576 -1.215,-2.025 -0.6,-0.449 -1.326,-0.676 -2.182,-0.676 -0.797,0 -1.471,0.154 -2.025,0.463 -0.557,0.307 -1.006,0.719 -1.35,1.236 -0.346,0.518 -0.598,1.107002 -0.754,1.766002 -0.158,0.662 -0.236,1.344 -0.236,2.049 0,0.674 0.078,1.33 0.236,1.969 0.156,0.637 0.408,1.211 0.754,1.721 0.344,0.51 0.793,0.92 1.35,1.227 0.555,0.309 1.229,0.461 2.025,0.461 1.17,0 2.072,-0.297 2.711,-0.889 0.637,-0.592 1.008,-1.451 1.113,-2.576 h -3.555 v -2.633 h 6.75 v 8.686 h -2.25 l -0.359,-1.822 c -0.63,0.807 -1.327,1.376 -2.093,1.696 M 534.645,94.642998 c 0.721,0 1.369,0.115 1.947,0.348 0.576,0.232 1.072,0.551 1.484,0.957 0.412,0.404 0.727,0.873 0.945,1.406 0.217,0.533 0.326,1.105 0.326,1.721 0,0.945002 -0.199,1.762002 -0.596,2.453002 -0.398,0.689 -1.047,1.215 -1.947,1.574 v 0.045 c 0.436,0.121 0.795,0.305 1.08,0.551 0.285,0.248 0.518,0.541 0.697,0.879 0.18,0.336 0.311,0.709 0.395,1.113 0.082,0.404 0.139,0.809 0.168,1.215 0.016,0.256 0.029,0.555 0.047,0.9 0.014,0.346 0.039,0.697 0.076,1.057 0.039,0.361 0.1,0.701 0.182,1.025 0.082,0.32 0.205,0.596 0.371,0.82 h -3.533 c -0.195,-0.51 -0.314,-1.117 -0.359,-1.822 -0.045,-0.705 -0.111,-1.379 -0.203,-2.025 -0.121,-0.84 -0.375,-1.455 -0.764,-1.846 -0.391,-0.389 -1.029,-0.584 -1.914,-0.584 h -3.531 v 6.277 h -3.533 V 94.642998 h 8.662 z m -1.26,7.267002 c 0.811,0 1.418,-0.182 1.822,-0.541 0.406,-0.359 0.609,-0.943 0.609,-1.754002 0,-0.781 -0.203,-1.348 -0.609,-1.699 -0.404,-0.354 -1.012,-0.529 -1.822,-0.529 h -3.869 V 101.91 h 3.869 z m -11.088,-7.267002 v 2.969 h -8.482 V 101.055 h 7.785 v 2.746 h -7.785 v 3.936 h 8.662 v 2.971 H 510.284 V 94.643998 h 12.013 z M 501.195,107.961 c 0.344,0 0.674,-0.033 0.988,-0.1 0.316,-0.068 0.594,-0.18 0.834,-0.338 0.238,-0.158 0.432,-0.371 0.572,-0.641 0.145,-0.271 0.215,-0.615 0.215,-1.035 0,-0.826 -0.232,-1.414 -0.697,-1.768 -0.467,-0.352 -1.08,-0.527 -1.846,-0.527 h -3.848 v 4.408 h 3.782 z m 0.248,-13.318002 c 0.764,0 1.461,0.066 2.092,0.201 0.629,0.135 1.17,0.357 1.619,0.664 0.449,0.309 0.799,0.717 1.047,1.227 0.248,0.51 0.371,1.141 0.371,1.889 0,0.811 -0.184,1.486002 -0.553,2.025002 -0.365,0.541 -0.91,0.984 -1.631,1.328 0.99,0.285 1.73,0.785 2.217,1.496 0.488,0.713 0.732,1.572 0.732,2.578 0,0.809 -0.158,1.51 -0.473,2.102 -0.316,0.594 -0.74,1.078 -1.271,1.451 -0.533,0.377 -1.141,0.654 -1.824,0.834 -0.682,0.18 -1.383,0.27 -2.102,0.27 h -7.785 V 94.643998 h 7.561 z m -0.451,6.502002 c 0.631,0 1.146,-0.15 1.553,-0.451 0.404,-0.299 0.607,-0.787002 0.607,-1.461002 0,-0.375 -0.068,-0.682 -0.203,-0.924 -0.135,-0.238 -0.314,-0.426 -0.539,-0.563 -0.227,-0.135 -0.484,-0.229 -0.777,-0.279 -0.293,-0.055 -0.596,-0.08 -0.91,-0.08 h -3.309 V 101.145 h 3.578 z m -21.221,-6.502002 6.705,10.775002 h 0.045 V 94.642998 h 3.309 V 110.707 h -3.533 L 479.615,99.950998 H 479.57 V 110.707 h -3.309 V 94.642998 h 3.51 z m -11.853,0 c 0.719,0 1.369,0.115 1.945,0.348 0.578,0.232 1.072,0.551 1.484,0.957 0.414,0.404 0.729,0.873 0.945,1.406 0.216,0.533 0.326,1.105 0.326,1.721 0,0.945002 -0.199,1.762002 -0.596,2.453002 -0.396,0.689 -1.047,1.215 -1.945,1.574 v 0.045 c 0.434,0.121 0.795,0.305 1.08,0.551 0.285,0.248 0.516,0.541 0.695,0.879 0.182,0.336 0.313,0.709 0.395,1.113 0.082,0.404 0.139,0.809 0.17,1.215 0.014,0.256 0.029,0.555 0.045,0.9 0.014,0.346 0.041,0.697 0.078,1.057 0.037,0.361 0.098,0.701 0.18,1.025 0.082,0.32 0.207,0.596 0.371,0.82 h -3.533 c -0.193,-0.51 -0.314,-1.117 -0.359,-1.822 -0.045,-0.705 -0.111,-1.379 -0.201,-2.025 -0.121,-0.84 -0.375,-1.455 -0.766,-1.846 -0.391,-0.389 -1.027,-0.584 -1.912,-0.584 h -3.533 v 6.277 h -3.533 V 94.642998 h 8.664 z m -1.26,7.267002 c 0.809,0 1.416,-0.182 1.82,-0.541 0.406,-0.359 0.609,-0.943 0.609,-1.754002 0,-0.781 -0.203,-1.348 -0.609,-1.699 -0.404,-0.354 -1.012,-0.529 -1.82,-0.529 h -3.871 V 101.91 h 3.871 z m -12.855,7.57 c -1.215,1.057 -2.895,1.586 -5.039,1.586 -2.176,0 -3.859,-0.525 -5.051,-1.574 -1.193,-1.051 -1.789,-2.67 -1.789,-4.859 v -9.990002 h 3.531 V 104.633 c 0,0.434 0.039,0.861 0.113,1.281 0.074,0.42 0.232,0.791 0.473,1.113 0.24,0.324 0.574,0.586 1.002,0.789 0.426,0.201 1,0.303 1.721,0.303 1.26,0 2.129,-0.281 2.609,-0.844 0.48,-0.563 0.721,-1.443 0.721,-2.643 v -9.990002 h 3.531 V 104.632 c 0,2.175 -0.607,3.792 -1.822,4.848 m -1.192,-16.638002 h -3.039 v -2.633 h 3.039 v 2.633 z m -4.636,0 h -3.037 v -2.633 h 3.037 v 2.633 z m -19.975,1.801 6.705,10.775002 h 0.045 V 94.642998 h 3.307 V 110.707 h -3.531 l -6.684,-10.756002 h -0.045 V 110.707 H 424.49 V 94.642998 H 428 z M 420.43,105.938 h -6.771 v -2.746 h 6.771 v 2.746 z M 399.592,94.642998 406.297,105.418 h 0.045 V 94.642998 h 3.309 V 110.707 h -3.533 l -6.684,-10.756002 h -0.045 V 110.707 h -3.307 V 94.642998 h 3.51 z m -7.196,0 v 2.969 h -8.482 V 101.055 h 7.785 v 2.746 h -7.785 v 3.936 h 8.662 v 2.971 H 380.381 V 94.643998 h 12.015 z M 372.215,110.582 c -0.766,0.324 -1.539,0.484 -2.318,0.484 -1.23,0 -2.336,-0.213 -3.318,-0.641 -0.982,-0.428 -1.813,-1.016 -2.486,-1.766 -0.676,-0.75 -1.191,-1.633 -1.553,-2.645 -0.36,-1.012 -0.54,-2.102 -0.54,-3.272 0,-1.201 0.18,-2.314 0.539,-3.342002 0.361,-1.027 0.877,-1.924 1.553,-2.689 0.674,-0.764 1.504,-1.363 2.486,-1.799 0.982,-0.436 2.088,-0.652 3.318,-0.652 0.824,0 1.623,0.123 2.396,0.371 0.773,0.246 1.471,0.611 2.092,1.092 0.623,0.479 1.137,1.072 1.541,1.775 0.406,0.707 0.654,1.518 0.744,2.432 h -3.375 c -0.211,-0.9 -0.615,-1.576 -1.215,-2.025 -0.602,-0.449 -1.328,-0.676 -2.184,-0.676 -0.795,0 -1.471,0.154 -2.025,0.463 -0.555,0.307 -1.004,0.719 -1.35,1.236 -0.346,0.517 -0.596,1.107002 -0.754,1.766002 -0.156,0.662 -0.236,1.344 -0.236,2.049 0,0.674 0.08,1.33 0.236,1.969 0.158,0.637 0.408,1.211 0.754,1.721 0.346,0.51 0.795,0.92 1.35,1.227 0.555,0.309 1.23,0.461 2.025,0.461 1.17,0 2.074,-0.297 2.713,-0.889 0.637,-0.592 1.008,-1.451 1.111,-2.576 h -3.555 v -2.633 h 6.75 v 8.686 h -2.25 l -0.359,-1.822 c -0.629,0.806 -1.326,1.375 -2.09,1.695 M 348.994,94.642998 355.699,105.418 h 0.045 V 94.642998 h 3.307 V 110.707 h -3.531 l -6.684,-10.756002 h -0.045 V 110.707 h -3.307 V 94.642998 h 3.51 z m -11.519,0 6.008,16.064002 h -3.668 l -1.215,-3.576 h -6.008 l -1.26,3.576 h -3.555 l 6.074,-16.064002 h 3.624 z m 0.203,9.853002 -2.025,-5.895002 h -0.045 l -2.094,5.895002 h 4.164 z M 318.484,94.642998 V 107.737 h 7.83 v 2.971 H 314.953 V 94.643998 h 3.531 z m -11.425,0 c 0.719,0 1.367,0.115 1.945,0.348 0.576,0.232 1.072,0.551 1.484,0.957 0.414,0.404 0.729,0.873 0.945,1.406 0.216,0.533 0.326,1.105 0.326,1.721 0,0.945002 -0.199,1.762002 -0.596,2.453002 -0.396,0.689 -1.047,1.215 -1.947,1.574 v 0.045 c 0.436,0.121 0.795,0.305 1.08,0.551 0.285,0.248 0.518,0.541 0.697,0.879 0.18,0.336 0.313,0.709 0.395,1.113 0.082,0.404 0.139,0.809 0.17,1.215 0.014,0.256 0.029,0.555 0.045,0.9 0.014,0.346 0.041,0.697 0.078,1.057 0.037,0.361 0.098,0.701 0.18,1.025 0.082,0.32 0.207,0.596 0.371,0.82 h -3.533 c -0.195,-0.51 -0.314,-1.117 -0.359,-1.822 -0.045,-0.705 -0.111,-1.379 -0.203,-2.025 -0.119,-0.84 -0.375,-1.455 -0.764,-1.846 -0.391,-0.389 -1.029,-0.584 -1.914,-0.584 h -3.531 v 6.277 h -3.533 V 94.642998 h 8.664 z M 305.797,101.91 c 0.811,0 1.418,-0.182 1.822,-0.541 0.406,-0.359 0.609,-0.943 0.609,-1.754002 0,-0.781 -0.203,-1.348 -0.609,-1.699 -0.404,-0.354 -1.012,-0.529 -1.822,-0.529 h -3.869 V 101.91 h 3.869 z m -10.861,-7.267002 v 2.969 h -8.482 V 101.055 h 7.785 v 2.746 h -7.785 v 3.936 h 8.662 v 2.971 H 282.92 V 94.643998 h 12.016 z"
   id="path3163"
   inkscape:connector-curvature="0"
   style="fill:#ffffff" />
<path
   d="m 423.973,73.312998 v -2.971 h 13.164 v 2.971 h -4.814 v 13.094 h -3.533 v -13.094 h -4.817 z m -5.67,-2.971 6.008,16.064 h -3.668 l -1.215,-3.576 h -6.006 l -1.26,3.576 h -3.557 l 6.076,-16.064 h 3.622 z m 0.203,9.855 -2.025,-5.896 h -0.045 l -2.092,5.896 h 4.162 z m 1.777,-11.656 h -3.037 v -2.633 h 3.037 v 2.633 z m -4.635,0 h -3.039 v -2.633 h 3.039 v 2.633 z m -19.957,4.772 v -2.971 h 13.162 v 2.971 h -4.814 v 13.094 h -3.533 v -13.094 h -4.815 z m -2.836,13.093 h -3.531 v -16.064 h 3.531 v 16.064 z m -16.423,-3.959 c 0.195,0.375 0.453,0.678 0.777,0.912 0.322,0.23 0.701,0.404 1.135,0.516 0.436,0.113 0.885,0.17 1.35,0.17 0.316,0 0.652,-0.025 1.014,-0.08 0.359,-0.051 0.697,-0.152 1.012,-0.303 0.316,-0.15 0.578,-0.357 0.787,-0.619 0.211,-0.262 0.316,-0.596 0.316,-1.002 0,-0.434 -0.139,-0.787 -0.416,-1.057 -0.279,-0.27 -0.643,-0.494 -1.092,-0.674 -0.449,-0.182 -0.961,-0.34 -1.529,-0.475 -0.57,-0.135 -1.148,-0.285 -1.734,-0.449 -0.6,-0.15 -1.184,-0.334 -1.754,-0.551 -0.57,-0.217 -1.08,-0.5 -1.531,-0.844 -0.449,-0.346 -0.813,-0.777 -1.09,-1.293 -0.279,-0.52 -0.416,-1.145 -0.416,-1.879 0,-0.826 0.176,-1.541 0.529,-2.15 0.352,-0.605 0.813,-1.113 1.383,-1.518 0.57,-0.406 1.215,-0.705 1.934,-0.9 0.721,-0.195 1.441,-0.293 2.16,-0.293 0.84,0 1.646,0.094 2.42,0.281 0.774,0.187 1.459,0.492 2.059,0.912 0.6,0.42 1.076,0.957 1.43,1.607 0.352,0.652 0.527,1.445 0.527,2.375 h -3.42 c -0.029,-0.48 -0.131,-0.879 -0.303,-1.193 -0.174,-0.314 -0.402,-0.563 -0.688,-0.742 -0.286,-0.179 -0.611,-0.309 -0.979,-0.383 -0.368,-0.074 -0.768,-0.111 -1.203,-0.111 -0.285,0 -0.57,0.029 -0.855,0.09 -0.285,0.061 -0.543,0.164 -0.775,0.314 -0.232,0.15 -0.424,0.338 -0.574,0.563 -0.15,0.225 -0.225,0.51 -0.225,0.855 0,0.314 0.061,0.568 0.18,0.764 0.119,0.196 0.355,0.375 0.709,0.541 0.352,0.164 0.84,0.33 1.463,0.494 0.621,0.166 1.436,0.375 2.439,0.631 0.301,0.059 0.717,0.168 1.25,0.326 0.531,0.158 1.061,0.408 1.586,0.754 0.525,0.344 0.979,0.807 1.361,1.383 0.383,0.578 0.574,1.316 0.574,2.217 0,0.734 -0.143,1.418 -0.428,2.049 -0.285,0.629 -0.709,1.174 -1.271,1.631 -0.562,0.457 -1.26,0.813 -2.092,1.068 -0.832,0.254 -1.797,0.381 -2.893,0.381 -0.885,0 -1.744,-0.107 -2.576,-0.324 -0.832,-0.219 -1.566,-0.561 -2.203,-1.025 -0.639,-0.465 -1.145,-1.057 -1.52,-1.777 -0.375,-0.719 -0.555,-1.574 -0.541,-2.564 h 3.42 c 0,0.54 0.097,0.997 0.293,1.372 m -10.934,-12.105 c 0.719,0 1.367,0.117 1.945,0.35 0.576,0.232 1.072,0.551 1.484,0.955 0.412,0.404 0.729,0.875 0.945,1.406 0.217,0.533 0.326,1.107 0.326,1.723 0,0.943 -0.199,1.762 -0.596,2.451 -0.398,0.689 -1.047,1.215 -1.945,1.574 v 0.045 c 0.434,0.121 0.795,0.305 1.08,0.553 0.283,0.248 0.516,0.541 0.695,0.877 0.182,0.338 0.313,0.709 0.395,1.113 0.082,0.406 0.139,0.811 0.17,1.217 0.014,0.254 0.029,0.555 0.045,0.898 0.014,0.346 0.041,0.697 0.078,1.059 0.037,0.359 0.098,0.701 0.18,1.023 0.082,0.322 0.205,0.596 0.371,0.82 h -3.533 c -0.195,-0.51 -0.314,-1.117 -0.359,-1.822 -0.045,-0.705 -0.111,-1.379 -0.201,-2.023 -0.121,-0.842 -0.375,-1.455 -0.766,-1.846 -0.391,-0.391 -1.027,-0.586 -1.914,-0.586 h -3.531 v 6.277 h -3.533 v -16.064 h 8.664 z m -1.26,7.267 c 0.809,0 1.416,-0.18 1.82,-0.539 0.406,-0.361 0.609,-0.945 0.609,-1.756 0,-0.779 -0.203,-1.346 -0.609,-1.699 -0.404,-0.352 -1.012,-0.529 -1.82,-0.529 h -3.871 v 4.523 h 3.871 z m -10.863,-7.267 v 2.971 h -8.484 v 3.441 h 7.785 v 2.746 h -7.785 v 3.938 h 8.664 v 2.969 H 341.36 v -16.065 h 12.015 z m -23.939,16.064 -5.197,-16.064 h 3.621 l 3.578,11.295 h 0.045 l 3.621,-11.295 h 3.646 l -5.332,16.064 h -3.982 z m -7.748,0 h -3.533 v -16.064 h 3.533 v 16.064 z m -17.528,-16.064 6.705,10.777 h 0.045 v -10.777 h 3.307 v 16.064 h -3.531 l -6.684,-10.754 h -0.045 v 10.754 h -3.307 v -16.064 h 3.51 z m -9.314,14.838 c -1.215,1.059 -2.895,1.586 -5.041,1.586 -2.174,0 -3.857,-0.523 -5.05,-1.574 -1.193,-1.051 -1.789,-2.67 -1.789,-4.859 v -9.99 h 3.533 v 9.99 c 0,0.434 0.037,0.863 0.113,1.283 0.074,0.42 0.23,0.791 0.473,1.113 0.238,0.322 0.572,0.586 1,0.787 0.428,0.203 1.002,0.305 1.721,0.305 1.262,0 2.131,-0.283 2.611,-0.844 0.48,-0.564 0.719,-1.445 0.719,-2.645 v -9.99 h 3.533 v 9.99 c -10e-4,2.174 -0.608,3.791 -1.823,4.848"
   id="path3165"
   inkscape:connector-curvature="0"
   style="fill:#ffffff" />
<path
   d="m 561.795,45.741998 c 0.721,0 1.369,0.115 1.947,0.349 0.578,0.231 1.072,0.552 1.484,0.956 0.412,0.404 0.729,0.874 0.945,1.406 0.217,0.533 0.326,1.107 0.326,1.722 0,0.945 -0.199,1.763 -0.596,2.452 -0.398,0.689 -1.047,1.215 -1.947,1.574 v 0.046 c 0.436,0.12 0.795,0.304 1.08,0.551 0.285,0.248 0.518,0.54 0.699,0.878 0.18,0.337 0.311,0.709 0.393,1.114 0.082,0.403 0.139,0.81 0.168,1.215 0.016,0.255 0.031,0.556 0.045,0.899 0.016,0.346 0.041,0.697 0.08,1.058 0.037,0.36 0.096,0.701 0.18,1.024 0.082,0.322 0.205,0.596 0.371,0.82 h -3.533 c -0.193,-0.51 -0.314,-1.117 -0.359,-1.822 -0.045,-0.705 -0.113,-1.379 -0.203,-2.025 -0.119,-0.839 -0.375,-1.454 -0.764,-1.844 -0.391,-0.391 -1.027,-0.586 -1.912,-0.586 h -3.533 v 6.277 h -3.533 v -16.064 h 8.662 z m -1.26,7.268 c 0.811,0 1.418,-0.18 1.824,-0.54 0.404,-0.36 0.605,-0.944 0.605,-1.755 0,-0.779 -0.201,-1.348 -0.605,-1.699 -0.406,-0.353 -1.014,-0.529 -1.824,-0.529 h -3.869 v 4.523 h 3.869 z m -10.75,-7.268 v 2.97 h -8.482 v 3.442 h 7.785 v 2.746 h -7.785 v 3.937 h 8.662 v 2.97 H 537.77 v -16.065 h 12.015 z m -22.207,0 c 1.035,0 1.998,0.164 2.891,0.494 0.893,0.33 1.666,0.826 2.318,1.485 0.652,0.66 1.162,1.485 1.529,2.476 0.367,0.991 0.551,2.152 0.551,3.488 0,1.17 -0.15,2.25 -0.449,3.239 -0.301,0.99 -0.754,1.845 -1.361,2.565 -0.607,0.719 -1.365,1.285 -2.271,1.697 -0.908,0.414 -1.979,0.619 -3.207,0.619 h -6.932 v -16.063 h 6.931 z m -0.248,13.095 c 0.51,0 1.006,-0.082 1.486,-0.247 0.479,-0.165 0.906,-0.439 1.281,-0.822 0.375,-0.382 0.674,-0.881 0.9,-1.496 0.225,-0.615 0.338,-1.365 0.338,-2.25 0,-0.81 -0.08,-1.541 -0.236,-2.193 -0.158,-0.652 -0.418,-1.211 -0.777,-1.676 -0.359,-0.465 -0.836,-0.821 -1.428,-1.069 -0.594,-0.247 -1.324,-0.371 -2.193,-0.371 h -2.521 v 10.125 h 3.15 z m -20.519,-13.095 6.705,10.777 h 0.045 v -10.777 h 3.307 v 16.064 h -3.531 l -6.684,-10.755 h -0.045 v 10.755 h -3.307 v -16.064 h 3.51 z m -11.618,0 6.008,16.064 h -3.668 l -1.215,-3.576 h -6.008 l -1.26,3.576 h -3.555 l 6.076,-16.064 h 3.622 z m 0.203,9.855 -2.025,-5.896 h -0.045 l -2.092,5.896 h 4.162 z m -26.033,-9.855 h 4.096 l 3.15,5.13 3.262,-5.13 h 3.871 l -5.154,7.673 5.604,8.392 h -4.207 l -3.512,-5.557 -3.576,5.557 h -3.961 l 5.604,-8.414 -5.177,-7.651 z m -2.722,0 v 2.97 h -8.482 v 3.442 h 7.785 v 2.746 h -7.785 v 3.937 h 8.664 v 2.97 h -12.195 v -16.065 h 12.013 z m -22.67,0 v 13.095 h 7.83 v 2.97 h -11.363 v -16.065 h 3.533 z m -11.977,0 6.008,16.064 h -3.668 l -1.215,-3.576 h -6.008 l -1.26,3.576 h -3.555 l 6.074,-16.064 h 3.624 z m 0.203,9.855 -2.025,-5.896 h -0.045 l -2.092,5.896 h 4.162 z m -11.597,1.44 h -6.771 v -2.745 h 6.771 v 2.745 z m -20.815,-11.295 v 6.164 h 6.502 v -6.164 h 3.533 v 16.064 h -3.533 v -6.93 h -6.502 v 6.93 h -3.533 v -16.064 h 3.533 z m -10.73,4.285 c -0.209,-0.336 -0.473,-0.633 -0.787,-0.887 -0.314,-0.256 -0.672,-0.455 -1.068,-0.598 -0.398,-0.143 -0.814,-0.213 -1.248,-0.213 -0.795,0 -1.471,0.152 -2.025,0.461 -0.555,0.307 -1.006,0.72 -1.35,1.236 -0.346,0.519 -0.598,1.107 -0.754,1.768 -0.158,0.66 -0.236,1.342 -0.236,2.047 0,0.676 0.078,1.331 0.236,1.969 0.156,0.637 0.408,1.211 0.754,1.721 0.344,0.511 0.795,0.92 1.35,1.227 0.555,0.309 1.23,0.462 2.025,0.462 1.08,0 1.924,-0.329 2.529,-0.989 0.609,-0.66 0.98,-1.531 1.115,-2.61 h 3.42 c -0.09,1.005 -0.322,1.911 -0.697,2.722 -0.375,0.811 -0.871,1.5 -1.486,2.07 -0.615,0.57 -1.334,1.005 -2.16,1.305 -0.824,0.301 -1.73,0.449 -2.721,0.449 -1.23,0 -2.338,-0.213 -3.32,-0.641 -0.982,-0.428 -1.811,-1.016 -2.486,-1.766 -0.674,-0.75 -1.191,-1.632 -1.553,-2.645 -0.359,-1.012 -0.539,-2.104 -0.539,-3.273 0,-1.199 0.18,-2.314 0.539,-3.341 0.361,-1.028 0.879,-1.925 1.553,-2.688 0.676,-0.766 1.504,-1.365 2.486,-1.801 0.982,-0.436 2.09,-0.652 3.32,-0.652 0.885,0 1.721,0.127 2.508,0.383 0.787,0.255 1.492,0.625 2.115,1.113 0.623,0.487 1.137,1.092 1.541,1.812 0.404,0.72 0.66,1.545 0.766,2.476 h -3.42 c -0.062,-0.408 -0.196,-0.779 -0.407,-1.117 m -14.102,11.78 h -3.533 v -16.065 h 3.533 v 16.065 z m -11.797,-16.065 c 0.719,0 1.369,0.115 1.945,0.349 0.578,0.231 1.072,0.552 1.486,0.956 0.412,0.404 0.727,0.874 0.945,1.406 0.217,0.533 0.326,1.107 0.326,1.722 0,0.945 -0.199,1.763 -0.598,2.452 -0.396,0.689 -1.047,1.215 -1.945,1.574 v 0.046 c 0.434,0.12 0.795,0.304 1.078,0.551 0.285,0.248 0.52,0.54 0.699,0.878 0.18,0.337 0.311,0.709 0.395,1.114 0.082,0.403 0.137,0.81 0.168,1.215 0.014,0.255 0.029,0.556 0.045,0.899 0.014,0.346 0.041,0.697 0.078,1.058 0.037,0.361 0.098,0.701 0.18,1.024 0.082,0.322 0.207,0.596 0.371,0.82 h -3.531 c -0.195,-0.51 -0.314,-1.117 -0.361,-1.822 -0.045,-0.705 -0.111,-1.379 -0.201,-2.025 -0.121,-0.839 -0.375,-1.454 -0.766,-1.844 -0.391,-0.391 -1.027,-0.586 -1.912,-0.586 h -3.533 v 6.277 h -3.531 v -16.064 h 8.662 z m -1.261,7.268 c 0.811,0 1.418,-0.18 1.824,-0.54 0.404,-0.36 0.607,-0.944 0.607,-1.755 0,-0.779 -0.203,-1.348 -0.607,-1.699 -0.406,-0.353 -1.014,-0.529 -1.824,-0.529 h -3.869 v 4.523 h 3.869 z m -17.559,-7.268 c 1.035,0 2,0.164 2.893,0.494 0.893,0.33 1.664,0.826 2.316,1.485 0.654,0.66 1.162,1.485 1.531,2.476 0.367,0.99 0.551,2.152 0.551,3.488 0,1.17 -0.15,2.25 -0.451,3.239 -0.299,0.99 -0.752,1.845 -1.359,2.565 -0.607,0.719 -1.365,1.285 -2.273,1.697 -0.908,0.414 -1.977,0.619 -3.207,0.619 h -6.93 v -16.063 h 6.929 z m -0.246,13.095 c 0.51,0 1.004,-0.082 1.484,-0.247 0.48,-0.165 0.906,-0.439 1.281,-0.822 0.375,-0.382 0.676,-0.881 0.9,-1.496 0.224,-0.615 0.338,-1.365 0.338,-2.25 0,-0.81 -0.078,-1.541 -0.234,-2.193 -0.158,-0.652 -0.418,-1.211 -0.777,-1.676 -0.361,-0.465 -0.836,-0.821 -1.428,-1.069 -0.594,-0.247 -1.324,-0.371 -2.195,-0.371 h -2.52 v 10.125 h 3.151 z m -10.143,-13.095 v 2.97 h -8.482 v 3.442 h 7.785 v 2.746 h -7.785 v 3.937 h 8.662 v 2.97 h -12.195 v -16.065 h 12.015 z m -16.066,16.065 h -3.531 v -16.065 h 3.531 v 16.065 z m -12.133,-16.065 c 0.719,0 1.369,0.115 1.945,0.349 0.578,0.231 1.074,0.552 1.484,0.956 0.414,0.404 0.729,0.874 0.945,1.406 0.219,0.533 0.328,1.107 0.328,1.722 0,0.945 -0.199,1.763 -0.598,2.452 -0.396,0.689 -1.045,1.215 -1.945,1.574 v 0.046 c 0.434,0.12 0.795,0.304 1.08,0.551 0.285,0.248 0.518,0.54 0.697,0.878 0.18,0.337 0.311,0.709 0.393,1.114 0.084,0.403 0.139,0.81 0.17,1.215 0.014,0.255 0.029,0.556 0.045,0.899 0.016,0.346 0.041,0.697 0.078,1.058 0.037,0.361 0.098,0.701 0.18,1.024 0.082,0.322 0.207,0.596 0.371,0.82 h -3.531 c -0.195,-0.51 -0.314,-1.117 -0.359,-1.822 -0.045,-0.705 -0.113,-1.379 -0.203,-2.025 -0.121,-0.839 -0.375,-1.454 -0.766,-1.844 -0.391,-0.391 -1.027,-0.586 -1.912,-0.586 h -3.533 v 6.277 h -3.531 v -16.064 h 8.662 z m -1.26,7.268 c 0.809,0 1.418,-0.18 1.822,-0.54 0.404,-0.36 0.607,-0.944 0.607,-1.755 0,-0.779 -0.203,-1.348 -0.607,-1.699 -0.404,-0.353 -1.014,-0.529 -1.822,-0.529 h -3.871 v 4.523 h 3.871 z m -10.273,-7.268 v 2.97 h -7.762 v 3.713 h 6.727 v 2.745 h -6.727 v 6.637 h -3.534 v -16.065 h 11.296 z"
   id="path3167"
   inkscape:connector-curvature="0"
   style="fill:#ffffff" />
</svg>