<?xml version="1.0" encoding="UTF-8" standalone="no"?>
<!-- Generator: Adobe Illustrator 16.0.3, SVG Export Plug-In . SVG Version: 6.00 Build 0)  -->

<svg
   xmlns:dc="http://purl.org/dc/elements/1.1/"
   xmlns:cc="http://creativecommons.org/ns#"
   xmlns:rdf="http://www.w3.org/1999/02/22-rdf-syntax-ns#"
   xmlns:svg="http://www.w3.org/2000/svg"
   xmlns="http://www.w3.org/2000/svg"
   xmlns:sodipodi="http://sodipodi.sourceforge.net/DTD/sodipodi-0.dtd"
   xmlns:inkscape="http://www.inkscape.org/namespaces/inkscape"
   version="1.1"
   id="Ebene_1"
   x="0px"
   y="0px"
   width="1340.422"
   height="427.121"
   viewBox="0 0 1340.422 427.12099"
   enable-background="new 0 0 1369.813 968.556"
   xml:space="preserve"
   inkscape:version="0.48.4 r9939"
   sodipodi:docname="ili-white.svg"><metadata
   id="metadata3129"><rdf:RDF><cc:Work
       rdf:about=""><dc:format>image/svg+xml</dc:format><dc:type
         rdf:resource="http://purl.org/dc/dcmitype/StillImage" /></cc:Work></rdf:RDF></metadata><defs
   id="defs3127" /><sodipodi:namedview
   pagecolor="#ffffff"
   bordercolor="#666666"
   borderopacity="1"
   objecttolerance="10"
   gridtolerance="10"
   guidetolerance="10"
   inkscape:pageopacity="0"
   inkscape:pageshadow="2"
   inkscape:window-width="1162"
   inkscape:window-height="807"
   id="namedview3125"
   showgrid="false"
   fit-margin-top="0"
   fit-margin-left="0"
   fit-margin-right="0"
   fit-margin-bottom="0"
   inkscape:zoom="0.24366169"
   inkscape:cx="668.02649"
   inkscape:cy="410.405"
   inkscape:window-x="0"
   inkscape:window-y="0"
   inkscape:window-maximized="0"
   inkscape:current-layer="Ebene_1" />
<g
   id="g3059"
   transform="translate(-16.88,-467.56202)">
	<g
   id="g3061">
		<path
   d="m 466.48,708.054 h 20.47 v 76.685 h -20.47 v -76.685 z"
   id="path3063"
   inkscape:connector-curvature="0"
   style="fill:#ffffff" />
		<path
   d="m 561.347,751.489 v 33.249 h -19.304 v -29.2 c 0,-4.463 -0.792,-7.781 -2.376,-9.959 -1.584,-2.178 -3.996,-3.267 -7.236,-3.267 -3.384,0 -6.092,1.369 -8.125,4.104 -2.035,2.734 -3.051,6.405 -3.051,11.011 v 27.312 h -19.516 v -56.851 h 17.732 v 10.211 c 2.23,-3.809 5.107,-6.709 8.634,-8.705 3.525,-1.993 7.5,-2.99 11.925,-2.99 6.944,0 12.232,2.131 15.865,6.394 3.634,4.261 5.452,10.491 5.452,18.691 z"
   id="path3065"
   inkscape:connector-curvature="0"
   style="fill:#ffffff" />
		<path
   d="m 616.686,729.385 -1.893,13.749 c -2.6,-1.476 -5.227,-2.599 -7.882,-3.373 -2.655,-0.772 -5.19,-1.16 -7.61,-1.16 -2.385,0 -4.228,0.423 -5.527,1.268 -1.299,0.846 -1.949,2.042 -1.949,3.588 0,2.016 2.658,3.741 7.978,5.179 1.664,0.47 2.983,0.848 3.961,1.134 6.056,1.798 10.281,3.991 12.678,6.579 2.396,2.589 3.596,6.128 3.596,10.623 0,6.005 -2.343,10.732 -7.028,14.183 -4.685,3.451 -11.135,5.175 -19.352,5.175 -3.497,0 -6.947,-0.27 -10.353,-0.809 -3.407,-0.54 -6.75,-1.347 -10.028,-2.424 l 1.24,-14.553 c 2.737,1.403 5.584,2.474 8.541,3.21 2.955,0.737 5.946,1.106 8.974,1.106 2.847,0 4.991,-0.387 6.433,-1.161 1.442,-0.771 2.163,-1.932 2.163,-3.479 0,-2.3 -2.928,-4.314 -8.785,-6.041 -1.445,-0.431 -2.584,-0.774 -3.416,-1.025 -5.931,-1.945 -10.065,-4.115 -12.401,-6.512 -2.336,-2.396 -3.505,-5.54 -3.505,-9.431 0,-5.943 2.342,-10.563 7.026,-13.862 4.685,-3.295 11.281,-4.944 19.786,-4.944 2.774,0 5.62,0.253 8.54,0.759 2.92,0.506 5.856,1.246 8.813,2.221 z"
   id="path3067"
   inkscape:connector-curvature="0"
   style="fill:#ffffff" />
		<path
   d="m 655.179,708.585 v 19.303 h 13.889 v 14.001 h -13.889 v 19.651 c 0,4.223 0.681,7.2 2.045,8.933 1.363,1.733 3.697,2.599 6.999,2.599 0.467,0 1.059,-0.063 1.776,-0.189 0.717,-0.126 1.74,-0.353 3.069,-0.678 l 0.324,12.643 c -2.086,0.475 -4.105,0.842 -6.063,1.098 -1.958,0.256 -3.871,0.384 -5.737,0.384 -7.688,0 -13.246,-1.898 -16.676,-5.697 -3.431,-3.798 -5.146,-9.981 -5.146,-18.549 V 741.891 H 624.846 V 727.89 h 12.003 v -13.103 l 18.33,-6.202 z"
   id="path3069"
   inkscape:connector-curvature="0"
   style="fill:#ffffff" />
		<path
   d="m 679.977,701.797 h 19.516 v 15.804 h -19.516 v -15.804 z m 0,26.091 h 19.516 v 56.851 h -19.516 v -56.851 z"
   id="path3071"
   inkscape:connector-curvature="0"
   style="fill:#ffffff" />
		<path
   d="m 739.088,708.585 v 19.303 h 13.89 v 14.001 h -13.89 v 19.651 c 0,4.223 0.681,7.2 2.045,8.933 1.364,1.733 3.697,2.599 6.998,2.599 0.468,0 1.06,-0.063 1.776,-0.189 0.718,-0.126 1.74,-0.353 3.07,-0.678 l 0.323,12.643 c -2.085,0.475 -4.105,0.842 -6.063,1.098 -1.959,0.256 -3.871,0.384 -5.738,0.384 -7.688,0 -13.246,-1.898 -16.676,-5.697 -3.431,-3.798 -5.146,-9.981 -5.146,-18.549 V 741.891 H 708.752 V 727.89 h 12.003 v -13.103 l 18.333,-6.202 z"
   id="path3073"
   inkscape:connector-curvature="0"
   style="fill:#ffffff" />
		<path
   d="m 762.722,727.888 h 19.409 v 28.631 c 0,4.458 0.791,7.784 2.376,9.977 1.584,2.192 3.995,3.288 7.236,3.288 3.671,0 6.452,-1.491 8.342,-4.475 1.888,-2.983 2.835,-7.352 2.835,-13.104 v -24.317 h 19.515 v 56.851 h -17.732 v -10.675 c -2.229,3.787 -5.101,6.672 -8.607,8.654 -3.506,1.984 -7.49,2.975 -11.951,2.975 -6.979,0 -12.294,-2.135 -15.945,-6.403 -3.652,-4.27 -5.477,-10.493 -5.477,-18.673 v -32.729 z"
   id="path3075"
   inkscape:connector-curvature="0"
   style="fill:#ffffff" />
		<path
   d="m 861.929,708.585 v 19.303 h 13.889 v 14.001 h -13.889 v 19.651 c 0,4.223 0.681,7.2 2.045,8.933 1.364,1.733 3.697,2.599 6.999,2.599 0.467,0 1.059,-0.063 1.776,-0.189 0.717,-0.126 1.74,-0.353 3.068,-0.678 l 0.324,12.643 c -2.085,0.475 -4.104,0.842 -6.062,1.098 -1.96,0.256 -3.872,0.384 -5.738,0.384 -7.688,0 -13.246,-1.898 -16.677,-5.697 -3.431,-3.798 -5.146,-9.981 -5.146,-18.549 V 741.891 H 831.593 V 727.89 h 12.004 v -13.103 l 18.332,-6.202 z"
   id="path3077"
   inkscape:connector-curvature="0"
   style="fill:#ffffff" />
		<path
   d="m 960.37,702.033 -1.187,13.305 c -0.79,-0.358 -1.59,-0.637 -2.398,-0.836 -0.809,-0.197 -1.626,-0.296 -2.451,-0.296 -2.766,0 -4.786,0.826 -6.06,2.478 -1.276,1.652 -1.912,4.256 -1.912,7.811 v 3.394 h 13.576 v 14.106 h -13.576 v 42.744 h -19.197 v -42.744 h -11.986 v -14.106 h 11.986 v -5.17 c 0,-7.309 1.859,-12.8 5.578,-16.474 3.719,-3.672 9.262,-5.509 16.63,-5.509 2.156,0 4.133,0.11 5.93,0.325 1.796,0.215 3.486,0.54 5.067,0.972 z"
   id="path3079"
   inkscape:connector-curvature="0"
   style="fill:#ffffff" />
		<path
   d="m 967.743,727.888 h 19.409 v 28.631 c 0,4.458 0.791,7.784 2.376,9.977 1.584,2.192 3.995,3.288 7.237,3.288 3.671,0 6.451,-1.491 8.341,-4.475 1.889,-2.983 2.835,-7.352 2.835,-13.104 v -24.317 h 19.516 v 56.851 h -17.732 v -10.675 c -2.23,3.787 -5.102,6.672 -8.607,8.654 -3.507,1.984 -7.491,2.975 -11.953,2.975 -6.979,0 -12.293,-2.135 -15.943,-6.403 -3.653,-4.27 -5.478,-10.493 -5.478,-18.673 v -32.729 z m 13.895,-24.712 h 13.471 v 14.53 h -13.471 v -14.53 z m 19.515,0 h 13.576 v 14.53 h -13.576 v -14.53 z"
   id="path3081"
   inkscape:connector-curvature="0"
   style="fill:#ffffff" />
		<path
   d="m 1082.86,727.039 -1.025,16.775 c -0.793,-0.324 -1.676,-0.565 -2.647,-0.728 -0.971,-0.163 -2.104,-0.244 -3.399,-0.244 -4.643,0 -8.144,1.495 -10.5,4.481 -2.356,2.988 -3.534,7.38 -3.534,13.173 v 24.241 h -19.516 v -56.851 h 17.407 v 10.853 c 1.979,-4.202 4.391,-7.308 7.234,-9.319 2.843,-2.011 6.207,-3.018 10.095,-3.018 1.009,0 2.843,0.196 5.508,0.583 0.178,0.037 0.304,0.054 0.377,0.054 z"
   id="path3083"
   inkscape:connector-curvature="0"
   style="fill:#ffffff" />
		<path
   d="m 466.48,816.406 h 20.47 v 61.517 h 30.865 V 893.09 H 466.48 v -76.684 z"
   id="path3085"
   inkscape:connector-curvature="0"
   style="fill:#ffffff" />
		<path
   d="m 582.752,865.765 v 4.733 h -39.876 c 0.395,3.692 1.995,6.543 4.799,8.55 2.804,2.009 6.579,3.012 11.326,3.012 2.839,0 5.84,-0.389 9.005,-1.167 3.164,-0.777 6.417,-1.943 9.761,-3.5 v 13.836 c -3.166,1.15 -6.465,2.012 -9.899,2.588 -3.434,0.575 -7.02,0.864 -10.759,0.864 -10.357,0 -18.448,-2.734 -24.273,-8.205 -5.825,-5.47 -8.737,-13.065 -8.737,-22.784 0,-8.853 2.688,-15.89 8.066,-21.107 5.377,-5.219 12.635,-7.829 21.773,-7.829 9.209,0 16.313,2.688 21.313,8.063 5.001,5.376 7.501,13.026 7.501,22.946 z m -17.182,-6.721 c -0.398,-3.83 -1.622,-6.838 -3.674,-9.024 -2.053,-2.186 -4.665,-3.279 -7.835,-3.279 -3.134,0 -5.709,1.094 -7.726,3.279 -2.018,2.187 -3.243,5.194 -3.674,9.024 h 22.909 z"
   id="path3087"
   inkscape:connector-curvature="0"
   style="fill:#ffffff" />
		<path
   d="m 633.939,835.392 -1.026,16.774 c -0.792,-0.323 -1.675,-0.565 -2.646,-0.728 -0.971,-0.163 -2.104,-0.243 -3.399,-0.243 -4.643,0 -8.144,1.494 -10.5,4.48 -2.357,2.988 -3.535,7.38 -3.535,13.174 v 24.24 h -19.516 v -56.851 h 17.408 v 10.853 c 1.979,-4.201 4.39,-7.307 7.233,-9.318 2.844,-2.013 6.208,-3.019 10.096,-3.019 1.008,0 2.842,0.195 5.507,0.584 0.179,0.037 0.305,0.054 0.378,0.054 z"
   id="path3089"
   inkscape:connector-curvature="0"
   style="fill:#ffffff" />
		<path
   d="m 701.142,859.841 v 33.249 h -19.303 v -29.201 c 0,-4.461 -0.792,-7.78 -2.376,-9.958 -1.584,-2.177 -3.996,-3.267 -7.235,-3.267 -3.385,0 -6.092,1.37 -8.126,4.104 -2.035,2.734 -3.05,6.405 -3.05,11.011 v 27.312 H 641.536 V 836.24 h 17.732 v 10.211 c 2.23,-3.808 5.108,-6.709 8.634,-8.704 3.525,-1.993 7.501,-2.991 11.926,-2.991 6.945,0 12.232,2.132 15.865,6.394 3.631,4.261 5.449,10.491 5.449,18.691 z"
   id="path3091"
   inkscape:connector-curvature="0"
   style="fill:#ffffff" />
		<path
   d="m 711.469,853.74 h 29.485 v 14.531 H 711.469 V 853.74 z"
   id="path3093"
   inkscape:connector-curvature="0"
   style="fill:#ffffff" />
		<path
   d="m 752.334,816.406 h 20.47 v 76.684 h -20.47 v -76.684 z"
   id="path3095"
   inkscape:connector-curvature="0"
   style="fill:#ffffff" />
		<path
   d="m 847.201,859.841 v 33.249 h -19.304 v -29.201 c 0,-4.461 -0.792,-7.78 -2.376,-9.958 -1.584,-2.177 -3.996,-3.267 -7.236,-3.267 -3.384,0 -6.092,1.37 -8.125,4.104 -2.035,2.734 -3.051,6.405 -3.051,11.011 v 27.312 H 787.592 V 836.24 h 17.733 v 10.211 c 2.23,-3.808 5.107,-6.709 8.634,-8.704 3.524,-1.993 7.501,-2.991 11.926,-2.991 6.943,0 12.232,2.132 15.864,6.394 3.634,4.261 5.452,10.491 5.452,18.691 z"
   id="path3097"
   inkscape:connector-curvature="0"
   style="fill:#ffffff" />
		<path
   d="m 920.637,859.841 v 33.249 h -19.304 v -29.201 c 0,-4.461 -0.792,-7.78 -2.376,-9.958 -1.584,-2.177 -3.996,-3.267 -7.236,-3.267 -3.384,0 -6.092,1.37 -8.125,4.104 -2.035,2.734 -3.051,6.405 -3.051,11.011 v 27.312 H 861.028 V 836.24 h 17.732 v 10.211 c 2.231,-3.808 5.108,-6.709 8.635,-8.704 3.524,-1.993 7.501,-2.991 11.926,-2.991 6.943,0 12.232,2.132 15.864,6.394 3.633,4.261 5.452,10.491 5.452,18.691 z"
   id="path3099"
   inkscape:connector-curvature="0"
   style="fill:#ffffff" />
		<path
   d="m 963.788,834.755 c 10.257,0 18.277,2.646 24.055,7.937 5.776,5.291 8.667,12.635 8.667,22.028 0,9.321 -2.891,16.629 -8.667,21.918 -5.777,5.292 -13.798,7.938 -24.055,7.938 -10.225,0 -18.215,-2.646 -23.974,-7.938 -5.762,-5.289 -8.64,-12.597 -8.64,-21.918 0,-9.394 2.878,-16.737 8.64,-22.028 5.759,-5.291 13.749,-7.937 23.974,-7.937 z m 10e-4,13.577 c -3.669,0 -6.646,1.487 -8.931,4.462 -2.284,2.977 -3.426,6.916 -3.426,11.819 0,4.833 1.142,8.735 3.426,11.71 2.284,2.977 5.262,4.463 8.931,4.463 3.74,0 6.734,-1.468 8.984,-4.408 2.247,-2.938 3.372,-6.859 3.372,-11.765 0,-4.94 -1.125,-8.889 -3.372,-11.846 -2.25,-2.956 -5.244,-4.435 -8.984,-4.435 z"
   id="path3101"
   inkscape:connector-curvature="0"
   style="fill:#ffffff" />
		<path
   d="m 1001.644,836.239 h 21.064 l 11.935,39.25 12.043,-39.25 h 19.551 l -21.333,56.851 h -21.98 l -21.28,-56.851 z"
   id="path3103"
   inkscape:connector-curvature="0"
   style="fill:#ffffff" />
		<path
   d="m 1126.369,863.33 v 29.76 h -16.893 l -0.431,-8.903 c -2.308,3.288 -5.095,5.702 -8.357,7.236 -3.263,1.535 -7.202,2.304 -11.815,2.304 -5.77,0 -10.367,-1.636 -13.792,-4.911 -3.426,-3.274 -5.138,-7.646 -5.138,-13.115 0,-6.295 2.486,-10.964 7.459,-14.005 4.974,-3.04 12.632,-4.561 22.975,-4.561 h 7.644 v -0.756 c 0,-3.069 -1.19,-5.426 -3.568,-7.068 -2.378,-1.642 -5.837,-2.465 -10.376,-2.465 -2.234,0 -4.774,0.39 -7.621,1.167 -2.847,0.778 -5.91,1.909 -9.188,3.394 l -0.323,-12.8 c 3.169,-1.336 6.599,-2.33 10.29,-2.981 3.69,-0.649 7.751,-0.976 12.181,-0.976 9.29,0 16.107,2.31 20.445,6.929 4.337,4.618 6.508,11.867 6.508,21.751 z m -21.654,3.88 c -5.748,0 -9.886,0.62 -12.415,1.858 -2.531,1.237 -3.796,3.22 -3.796,5.945 0,1.977 0.677,3.572 2.033,4.792 1.354,1.22 3.152,1.829 5.394,1.829 3.542,0 6.441,-1.184 8.701,-3.552 2.259,-2.368 3.389,-5.453 3.389,-9.259 v -1.614 h -3.306 z"
   id="path3105"
   inkscape:connector-curvature="0"
   style="fill:#ffffff" />
		<path
   d="m 1164.847,816.937 v 19.303 h 13.89 v 14.001 h -13.89 v 19.651 c 0,4.223 0.681,7.201 2.045,8.933 1.364,1.734 3.697,2.599 6.999,2.599 0.467,0 1.059,-0.063 1.776,-0.188 0.717,-0.126 1.739,-0.354 3.069,-0.679 l 0.323,12.644 c -2.085,0.474 -4.105,0.84 -6.063,1.098 -1.959,0.254 -3.871,0.384 -5.737,0.384 -7.688,0 -13.247,-1.898 -16.677,-5.697 -3.431,-3.799 -5.146,-9.981 -5.146,-18.55 V 850.24 h -10.925 v -14.001 h 12.004 v -13.102 l 18.332,-6.2 z"
   id="path3107"
   inkscape:connector-curvature="0"
   style="fill:#ffffff" />
		<path
   d="m 1189.646,810.147 h 19.516 v 15.805 h -19.516 v -15.805 z m 0,26.092 h 19.516 v 56.851 h -19.516 v -56.851 z"
   id="path3109"
   inkscape:connector-curvature="0"
   style="fill:#ffffff" />
		<path
   d="m 1253.368,834.755 c 10.259,0 18.277,2.646 24.055,7.937 5.776,5.291 8.667,12.635 8.667,22.028 0,9.321 -2.891,16.629 -8.667,21.918 -5.777,5.292 -13.796,7.938 -24.055,7.938 -10.223,0 -18.215,-2.646 -23.974,-7.938 -5.76,-5.289 -8.639,-12.597 -8.639,-21.918 0,-9.394 2.879,-16.737 8.639,-22.028 5.759,-5.291 13.752,-7.937 23.974,-7.937 z m 10e-4,13.577 c -3.669,0 -6.646,1.487 -8.931,4.462 -2.283,2.977 -3.425,6.916 -3.425,11.819 0,4.833 1.142,8.735 3.425,11.71 2.284,2.977 5.262,4.463 8.931,4.463 3.74,0 6.736,-1.468 8.984,-4.408 2.247,-2.938 3.372,-6.859 3.372,-11.765 0,-4.94 -1.125,-8.889 -3.372,-11.846 -2.248,-2.956 -5.244,-4.435 -8.984,-4.435 z"
   id="path3111"
   inkscape:connector-curvature="0"
   style="fill:#ffffff" />
		<path
   d="m 1357.302,859.841 v 33.249 h -19.303 v -29.201 c 0,-4.461 -0.793,-7.78 -2.377,-9.958 -1.584,-2.177 -3.996,-3.267 -7.236,-3.267 -3.383,0 -6.092,1.37 -8.125,4.104 -2.035,2.734 -3.051,6.405 -3.051,11.011 v 27.312 h -19.517 V 836.24 h 17.732 v 10.211 c 2.231,-3.808 5.108,-6.709 8.635,-8.704 3.525,-1.993 7.501,-2.991 11.926,-2.991 6.943,0 12.232,2.132 15.865,6.394 3.633,4.261 5.451,10.491 5.451,18.691 z"
   id="path3113"
   inkscape:connector-curvature="0"
   style="fill:#ffffff" />
	</g>
</g>
<path
   d="M 3.187,9.8072028e-4 H 0 V 121.83798 h 121.043 l 0.03,-3.159 c 0,-0.034 0.012,-0.084 0.012,-0.169 0,-0.108 0.007,-0.254 0.007,-0.414 C 121.094,53.074981 68.196,0.10998072 3.187,9.8072028e-4 z"
   id="path3115"
   inkscape:connector-curvature="0"
   style="fill:#ffffff" />
<rect
   x="0.0010005188"
   y="163.27301"
   width="121.093"
   height="261.60599"
   id="rect3117"
   style="fill:#ffffff" />
<path
   d="M 260.63,111.08798 C 256.977,48.652981 205.987,0.09798072 143.068,-1.9279717e-5 H 139.88 V 424.87898 h 121.086 v -313.791 h -0.336 z"
   id="path3119"
   inkscape:connector-curvature="0"
   style="fill:#ffffff" />
<path
   d="m 282.955,9.8072028e-4 h -3.181 V 121.83798 h 121.087 v -3.378 c 0,-0.106 0.006,-0.229 0.006,-0.364 C 400.867,53.074981 347.969,0.10998072 282.955,9.8072028e-4 z"
   id="path3121"
   inkscape:connector-curvature="0"
   style="fill:#ffffff" />
<rect
   x="279.77399"
   y="163.27301"
   width="121.093"
   height="261.60599"
   id="rect3123"
   style="fill:#ffffff" />
</svg>