<?xml version="1.0" encoding="UTF-8" standalone="no"?>
<!-- Generator: Adobe Illustrator 16.0.3, SVG Export Plug-In . SVG Version: 6.00 Build 0)  -->

<svg
   xmlns:dc="http://purl.org/dc/elements/1.1/"
   xmlns:cc="http://creativecommons.org/ns#"
   xmlns:rdf="http://www.w3.org/1999/02/22-rdf-syntax-ns#"
   xmlns:svg="http://www.w3.org/2000/svg"
   xmlns="http://www.w3.org/2000/svg"
   xmlns:sodipodi="http://sodipodi.sourceforge.net/DTD/sodipodi-0.dtd"
   xmlns:inkscape="http://www.inkscape.org/namespaces/inkscape"
   version="1.1"
   id="Ebene_1"
   x="0px"
   y="0px"
   width="1188.578"
   height="261.784"
   viewBox="0 0 1188.578 261.78399"
   enable-background="new 0 0 1190.551 841.89"
   xml:space="preserve"
   inkscape:version="0.48.4 r9939"
   sodipodi:docname="studon.svg"><metadata
   id="metadata3045"><rdf:RDF><cc:Work
       rdf:about=""><dc:format>image/svg+xml</dc:format><dc:type
         rdf:resource="http://purl.org/dc/dcmitype/StillImage" /><dc:title></dc:title></cc:Work></rdf:RDF></metadata><defs
   id="defs3043">
		
		
		
		
	
		
	
		
	</defs><sodipodi:namedview
   pagecolor="#ffffff"
   bordercolor="#666666"
   borderopacity="1"
   objecttolerance="10"
   gridtolerance="10"
   guidetolerance="10"
   inkscape:pageopacity="0"
   inkscape:pageshadow="2"
   inkscape:window-width="1501"
   inkscape:window-height="933"
   id="namedview3041"
   showgrid="false"
   fit-margin-top="0"
   fit-margin-left="0"
   fit-margin-right="0"
   fit-margin-bottom="0"
   inkscape:zoom="0.5"
   inkscape:cx="182.32449"
   inkscape:cy="79.985001"
   inkscape:window-x="153"
   inkscape:window-y="31"
   inkscape:window-maximized="0"
   inkscape:current-layer="g3017" />
<g
   id="g3017"
   transform="translate(-2.7080023,-239.146)">
	<path
   style="fill:#ffffff;fill-opacity:1"
   inkscape:connector-curvature="0"
   id="path3021"
   d="m 978.948,447.284 h -27.772 l -18.392,-65.607 v 65.607 H 910.249 V 324.137 h 30.695 l 15.468,56.16 v -56.16 h 22.536 v 123.147 z" />
	<path
   style="fill:#ffffff;fill-opacity:1"
   inkscape:connector-curvature="0"
   id="path3025"
   d="M 213.696,397.96 H 238.3 v 28.296 c 0,2.81 1.694,4.214 5.082,4.214 3.27,0 4.907,-1.412 4.907,-4.244 v -14.594 c 0,-4.46 -2.977,-9.7 -8.926,-15.708 -11.503,-11.162 -18.659,-18.656 -21.461,-22.493 -2.806,-3.834 -4.206,-8.04 -4.206,-12.622 v -13.818 c 0,-15.972 10.43,-23.954 31.293,-23.954 18.681,0 28.027,7.273 28.027,21.814 v 21.301 H 248.41 v -22.724 c 0,-2.467 -1.366,-3.704 -4.099,-3.704 -3.198,0 -4.792,2.394 -4.792,7.179 l 0.514,7.981 c 0,4.584 3.045,9.906 9.128,15.973 11.306,10.818 18.492,18.369 21.563,22.663 3.072,4.294 4.607,9.159 4.607,14.594 v 15.706 c 0,16.372 -10.462,24.555 -31.378,24.555 -20.173,0 -30.257,-7.439 -30.257,-22.332 V 397.96 z" /><path
   style="fill:#ffffff;fill-opacity:1"
   inkscape:connector-curvature="0"
   id="path3027"
   d="M 371.408,340.213 H 356.293 V 447.28 h -27.04 V 340.213 h -15.116 v -16.079 h 57.271 v 16.079 z" /><path
   style="fill:#ffffff;fill-opacity:1"
   inkscape:connector-curvature="0"
   id="path3029"
   d="m 411.316,324.134 h 27.041 v 103.375 c 0,2.463 1.538,3.693 4.614,3.693 3.014,0 4.521,-1.23 4.521,-3.693 V 324.134 h 27.042 v 101.917 c 0,7.1 -2.953,12.591 -8.86,16.486 -5.907,3.894 -13.476,5.838 -22.702,5.838 -8.551,0 -15.958,-1.746 -22.239,-5.238 -6.278,-3.489 -9.415,-9.13 -9.415,-16.911 V 324.134 z" /><path
   style="fill:#ffffff;fill-opacity:1"
   inkscape:connector-curvature="0"
   id="path3031"
   d="M 514.843,447.28 V 324.134 h 33.756 c 7.346,0 13.892,1.991 19.632,5.969 5.741,3.978 8.61,10.091 8.61,18.335 v 74.538 c 0,7.674 -2.687,13.643 -8.054,17.905 -5.367,4.269 -12.041,6.399 -20.018,6.399 h -33.926 z m 34.715,-22.363 v -78.504 c 0,-4.293 -2.559,-6.444 -7.676,-6.444 v 91.476 c 5.117,0 7.676,-2.173 7.676,-6.528 z" />
	<path
   style="fill:#ffffff;fill-opacity:1"
   inkscape:connector-curvature="0"
   id="path3035"
   d="m 850.069,370.043 c 0,57.127 -46.47,103.604 -103.59,103.604 -57.133,0 -103.611,-46.477 -103.611,-103.604 0,-57.135 46.479,-103.612 103.611,-103.612 57.12,0 103.59,46.477 103.59,103.612 z M 746.479,239.146 c -72.177,0 -130.895,58.718 -130.895,130.896 0,72.171 58.718,130.888 130.895,130.888 72.163,0 130.876,-58.717 130.876,-130.888 0,-72.177 -58.713,-130.896 -130.876,-130.896 z" />
	<rect
   x="2.7079999"
   y="371.146"
   width="184.022"
   height="23.091"
   id="rect3037"
   style="fill:#ffffff;fill-opacity:1" />
	<rect
   x="1007.259"
   y="371.146"
   width="184.02699"
   height="23.091"
   id="rect3039"
   style="fill:#ffffff;fill-opacity:1" />
</g>
</svg>