<?xml version="1.0" encoding="UTF-8" standalone="no"?>
<!-- Generator: Adobe Illustrator 16.0.3, SVG Export Plug-In . SVG Version: 6.00 Build 0)  -->

<svg
   xmlns:dc="http://purl.org/dc/elements/1.1/"
   xmlns:cc="http://creativecommons.org/ns#"
   xmlns:rdf="http://www.w3.org/1999/02/22-rdf-syntax-ns#"
   xmlns:svg="http://www.w3.org/2000/svg"
   xmlns="http://www.w3.org/2000/svg"
   xmlns:sodipodi="http://sodipodi.sourceforge.net/DTD/sodipodi-0.dtd"
   xmlns:inkscape="http://www.inkscape.org/namespaces/inkscape"
   version="1.1"
   id="Ebene_1"
   x="0px"
   y="0px"
   width="30"
   height="30"
   viewBox="0 0 30.000001 29.999999"
   enable-background="new 0 0 1190.551 841.89"
   xml:space="preserve"
   inkscape:version="0.48.4 r9939"
   sodipodi:docname="studon-square.svg"><metadata
   id="metadata3045"><rdf:RDF><cc:Work
       rdf:about=""><dc:format>image/svg+xml</dc:format><dc:type
         rdf:resource="http://purl.org/dc/dcmitype/StillImage" /></cc:Work></rdf:RDF></metadata><defs
   id="defs3043" /><sodipodi:namedview
   pagecolor="#ffffff"
   bordercolor="#666666"
   borderopacity="1"
   objecttolerance="10"
   gridtolerance="10"
   guidetolerance="10"
   inkscape:pageopacity="0"
   inkscape:pageshadow="2"
   inkscape:window-width="1624"
   inkscape:window-height="969"
   id="namedview3041"
   showgrid="true"
   inkscape:zoom="10.64272"
   inkscape:cx="42.866709"
   inkscape:cy="13.558429"
   inkscape:window-x="0"
   inkscape:window-y="0"
   inkscape:window-maximized="0"
   inkscape:current-layer="layer2"
   inkscape:snap-page="true"
   fit-margin-top="0"
   fit-margin-left="0"
   fit-margin-right="0"
   fit-margin-bottom="0"
   showguides="true"
   inkscape:guide-bbox="true"
   inkscape:snap-grids="true"><inkscape:grid
     type="xygrid"
     id="grid3880"
     empspacing="5"
     visible="true"
     enabled="true"
     snapvisiblegridlinesonly="true" /></sodipodi:namedview>

<g
   inkscape:groupmode="layer"
   id="layer1"
   inkscape:label="Hintergrund"
   style="display:none"
   transform="translate(0.9569,562.09634)"><rect
     style="fill:#ffffff;fill-opacity:1"
     id="rect3925"
     width="1188.578"
     height="261.784"
     x="0"
     y="0"
     transform="translate(-0.45585772,-0.09837297)" /></g><g
   inkscape:groupmode="layer"
   id="layer2"
   inkscape:label="Ebene"
   style="display:inline"
   transform="translate(0.9569,562.09634)"><g
     id="g3019"
     transform="matrix(0.07206259,0,0,0.07206259,-50.325658,-568.95246)"><path
       id="path3021"
       d="m 978.948,447.284 h -27.772 l -18.392,-65.607 v 65.607 H 910.249 V 324.137 h 30.695 l 15.468,56.16 v -56.16 h 22.536 v 123.147 z"
       inkscape:connector-curvature="0"
       style="fill:#004171" /></g><g
     id="g3023"
     transform="matrix(0.07206259,0,0,0.07206259,-14.365053,-581.75768)"><path
       id="path3025"
       d="M 213.696,397.96 H 238.3 v 28.296 c 0,2.81 1.694,4.214 5.082,4.214 3.27,0 4.907,-1.412 4.907,-4.244 v -14.594 c 0,-4.46 -2.977,-9.7 -8.926,-15.708 -11.503,-11.162 -18.659,-18.656 -21.461,-22.493 -2.806,-3.834 -4.206,-8.04 -4.206,-12.622 v -13.818 c 0,-15.972 10.43,-23.954 31.293,-23.954 18.681,0 28.027,7.273 28.027,21.814 v 21.301 H 248.41 v -22.724 c 0,-2.467 -1.366,-3.704 -4.099,-3.704 -3.198,0 -4.792,2.394 -4.792,7.179 l 0.514,7.981 c 0,4.584 3.045,9.906 9.128,15.973 11.306,10.818 18.492,18.369 21.563,22.663 3.072,4.294 4.607,9.159 4.607,14.594 v 15.706 c 0,16.372 -10.462,24.555 -31.378,24.555 -20.173,0 -30.257,-7.439 -30.257,-22.332 V 397.96 z"
       inkscape:connector-curvature="0"
       style="fill:#004171" /><path
       id="path3027"
       d="M 371.408,340.213 H 356.293 V 447.28 h -27.04 V 340.213 h -15.116 v -16.079 h 57.271 v 16.079 z"
       inkscape:connector-curvature="0"
       style="fill:#004171" /><path
       id="path3029"
       d="m 411.316,324.134 h 27.041 v 103.375 c 0,2.463 1.538,3.693 4.614,3.693 3.014,0 4.521,-1.23 4.521,-3.693 V 324.134 h 27.042 v 101.917 c 0,7.1 -2.953,12.591 -8.86,16.486 -5.907,3.894 -13.476,5.838 -22.702,5.838 -8.551,0 -15.958,-1.746 -22.239,-5.238 -6.278,-3.489 -9.415,-9.13 -9.415,-16.911 V 324.134 z"
       inkscape:connector-curvature="0"
       style="fill:#004171" /><path
       id="path3031"
       d="M 514.843,447.28 V 324.134 h 33.756 c 7.346,0 13.892,1.991 19.632,5.969 5.741,3.978 8.61,10.091 8.61,18.335 v 74.538 c 0,7.674 -2.687,13.643 -8.054,17.905 -5.367,4.269 -12.041,6.399 -20.018,6.399 h -33.926 z m 34.715,-22.363 v -78.504 c 0,-4.293 -2.559,-6.444 -7.676,-6.444 v 91.476 c 5.117,0 7.676,-2.173 7.676,-6.528 z"
       inkscape:connector-curvature="0"
       style="fill:#004171" /></g><path
     style="fill:#004171"
     inkscape:connector-curvature="0"
     d="m 11.579728,-541.15692 c 0,2.80652 -1.7754976,4.5614 -4.5818125,4.5614 -2.8069568,0 -4.5828477,-1.75488 -4.5828477,-4.5614 0,-2.80691 1.7759396,-4.56178 4.5828477,-4.56178 2.8063149,0 4.5818125,1.75487 4.5818125,4.56178 z m -4.5818125,-6.43067 c -3.5460723,0 -6.43089791,2.88469 -6.43089791,6.43063 0,3.54559 2.88482561,6.43023 6.43089791,6.43023 3.5453805,0 6.4299615,-2.88464 6.4299615,-6.43023 0,-3.5459 -2.884581,-6.43063 -6.4299615,-6.43063 z"
     id="path3035"
     sodipodi:nodetypes="ssssssssss" /><rect
     id="rect3037"
     height="1.6639973"
     width="4.3421535"
     y="-541.9892"
     x="22.716568"
     style="fill:#7e94a8;display:inline" /></g></svg>